<?xml version="1.0" standalone="no"?>
<!DOCTYPE svg PUBLIC "-//W3C//DTD SVG 20010904//EN"
 "http://www.w3.org/TR/2001/REC-SVG-20010904/DTD/svg10.dtd">
<svg version="1.0" xmlns="http://www.w3.org/2000/svg"
 width="2158.000000pt" height="500.000000pt" viewBox="0 0 2158.000000 500.000000"
 preserveAspectRatio="xMidYMid meet">

<g transform="translate(0.000000,500.000000) scale(0.100000,-0.100000)"
fill="#000000" stroke="none">
<path d="M1965 4273 c-10 -15 -38 -52 -62 -83 -47 -58 -48 -59 -103 -130 -19
-25 -37 -47 -40 -50 -3 -3 -18 -23 -35 -45 -16 -22 -32 -42 -35 -45 -3 -3 -19
-23 -36 -45 -31 -42 -144 -186 -172 -220 -10 -11 -31 -38 -47 -60 -49 -65
-109 -140 -117 -143 -5 -2 -8 -7 -8 -12 0 -8 -6 -16 -70 -92 l-32 -38 26 -192
c14 -106 28 -220 31 -253 2 -33 16 -148 29 -255 44 -341 76 -603 80 -655 3
-27 16 -138 29 -245 14 -107 37 -294 52 -415 14 -121 40 -326 56 -455 16 -129
29 -246 27 -260 -2 -20 1 -25 17 -23 11 1 47 5 80 8 33 3 78 8 100 11 22 2 60
6 85 9 59 5 121 14 140 20 8 2 42 7 75 10 33 3 78 8 100 11 52 6 116 12 188
18 31 3 62 8 67 11 5 3 27 8 47 10 21 2 61 7 88 10 95 11 130 15 175 20 25 3
68 7 95 10 28 3 57 7 65 10 17 5 93 15 155 20 22 2 54 6 72 9 17 2 64 7 105
11 40 3 80 8 89 11 29 8 92 16 229 29 25 2 61 7 80 10 19 3 58 7 87 9 29 2 57
7 63 11 6 3 29 8 53 10 83 9 153 16 192 21 71 8 149 16 185 17 40 2 62 23 150
138 30 40 62 80 70 89 8 8 35 42 60 74 25 32 56 73 70 91 14 18 45 59 70 91
24 33 52 68 63 79 10 11 27 35 38 53 12 17 24 32 28 32 4 0 15 14 25 30 9 17
27 41 39 55 12 13 47 56 77 96 30 40 62 80 70 88 8 9 33 40 54 70 l39 53 -59
-6 c-32 -3 -79 -8 -104 -11 -25 -3 -65 -7 -90 -10 -25 -3 -74 -8 -110 -11 -36
-4 -75 -8 -87 -8 -13 -1 -23 -4 -23 -8 0 -4 -8 -7 -17 -6 -10 0 -34 -3 -53 -5
-19 -3 -60 -8 -90 -12 -30 -3 -68 -7 -85 -10 -16 -2 -61 -6 -99 -10 -39 -3
-73 -8 -77 -10 -3 -3 -26 -7 -50 -9 -24 -3 -66 -8 -94 -11 -27 -4 -68 -8 -90
-10 -22 -2 -61 -6 -87 -9 -27 -3 -68 -8 -93 -10 -25 -3 -48 -7 -53 -10 -8 -5
-53 -12 -137 -21 -27 -3 -66 -8 -85 -10 -19 -3 -60 -7 -90 -10 -105 -11 -125
-13 -150 -19 -26 -6 -99 -15 -165 -21 -22 -2 -54 -6 -72 -9 -17 -2 -64 -7
-105 -11 -40 -3 -86 -10 -103 -15 -16 -4 -37 -8 -45 -8 -8 0 -33 -3 -55 -6
-63 -8 -137 -17 -180 -21 -22 -2 -63 -6 -91 -10 -49 -5 -51 -4 -51 18 0 21
-16 146 -80 647 -14 113 -27 223 -28 246 -2 22 -15 135 -29 250 -68 536 -77
612 -80 654 -3 43 -24 208 -84 684 -16 122 -32 211 -38 213 -6 2 -19 -9 -29
-24z"/>
<path d="M6775 4274 c-82 -7 -229 -20 -325 -28 -96 -9 -247 -20 -335 -26 -185
-12 -198 -15 -219 -36 -22 -22 -20 -96 3 -148 25 -53 92 -143 164 -220 l55
-59 -23 -231 c-32 -311 -52 -602 -70 -1021 -9 -192 -25 -492 -36 -665 -31
-506 -26 -599 41 -730 28 -55 94 -124 144 -150 25 -14 51 -35 58 -48 17 -33
104 -109 149 -133 52 -26 196 -67 266 -74 65 -7 19 -24 548 199 127 54 311
131 410 173 329 137 325 135 325 201 0 99 -157 242 -360 329 -59 25 -75 28
-185 27 -108 -1 -128 -4 -206 -32 -124 -45 -239 -100 -357 -170 -57 -34 -106
-62 -109 -62 -8 0 3 380 18 666 l13 231 95 7 c53 4 139 13 191 20 215 32 343
47 492 59 201 17 228 33 228 138 0 56 -28 105 -101 175 -156 148 -357 244
-513 244 -39 0 -134 -7 -210 -15 -77 -8 -141 -14 -142 -12 -3 3 31 379 63 699
6 65 0 62 143 78 52 5 106 12 120 15 86 17 398 38 587 40 163 1 226 5 238 15
29 24 11 141 -38 233 -79 151 -257 263 -488 308 -120 23 -395 24 -634 3z"/>
<path d="M4668 4245 c-2 -2 -32 -6 -68 -9 -36 -4 -83 -8 -105 -11 -22 -2 -64
-6 -93 -9 -30 -3 -58 -8 -63 -12 -5 -3 -30 -7 -57 -9 -26 -2 -68 -6 -94 -9
-62 -8 -128 -14 -203 -21 -33 -3 -73 -10 -90 -15 -16 -4 -37 -8 -45 -9 -8 0
-40 -3 -70 -6 -30 -3 -75 -7 -100 -10 -25 -2 -63 -6 -85 -9 -22 -3 -58 -8 -80
-10 -22 -3 -67 -9 -100 -15 -33 -5 -87 -13 -120 -16 -174 -17 -229 -24 -330
-41 -32 -5 -79 -10 -165 -19 -30 -3 -73 -8 -95 -11 -22 -2 -64 -6 -93 -9 -29
-2 -56 -6 -61 -9 -4 -3 -41 -8 -82 -12 -41 -3 -78 -8 -83 -11 -4 -3 -5 -34 -1
-69 4 -36 8 -83 10 -107 1 -23 14 -134 28 -247 15 -113 32 -254 39 -315 l13
-110 40 1 c59 2 188 15 195 19 8 5 74 14 145 21 65 6 118 11 178 18 26 3 67 8
92 10 25 3 48 7 53 10 9 5 63 12 257 30 77 8 137 15 175 23 50 10 59 11 125
17 33 3 78 8 100 11 22 3 66 8 99 11 65 6 66 7 156 125 30 40 62 80 70 88 8 9
26 32 40 51 13 19 54 72 90 116 36 45 90 114 120 154 30 40 62 79 70 89 9 9
29 34 45 56 16 22 34 45 40 52 5 6 35 44 65 84 30 39 65 83 78 97 30 34 28 49
-7 50 -16 0 -31 -1 -33 -3z"/>
<path d="M15558 4184 c-59 -31 -75 -104 -144 -651 -6 -50 -3 -48 -149 -63
-195 -19 -227 -36 -241 -125 -5 -38 -2 -54 21 -99 49 -96 166 -210 273 -266
l42 -22 -6 -71 c-2 -40 -9 -126 -14 -192 -5 -66 -17 -362 -26 -658 -15 -452
-15 -554 -5 -630 24 -168 87 -291 192 -376 30 -24 64 -63 76 -87 74 -142 295
-254 475 -241 229 16 577 287 712 554 57 114 70 246 35 358 -17 55 -31 78 -74
122 -52 51 -55 53 -110 53 -77 0 -118 -24 -209 -122 -98 -105 -195 -191 -267
-232 -53 -32 -159 -76 -181 -76 -31 0 27 718 119 1458 l17 142 31 0 c16 1 89
5 160 10 72 5 215 14 319 20 239 14 256 22 272 117 13 84 -73 195 -231 298
-163 107 -241 135 -372 135 l-95 0 7 68 c4 37 13 100 21 141 12 63 11 78 -2
109 -50 121 -266 275 -451 322 -90 24 -158 25 -195 4z"/>
<path d="M8160 3647 c-81 -22 -104 -86 -80 -218 5 -30 26 -153 45 -274 20
-121 42 -256 50 -300 8 -44 67 -394 131 -779 67 -405 125 -730 139 -775 54
-170 173 -307 340 -394 17 -8 50 -34 74 -56 74 -68 136 -98 274 -132 149 -36
264 -19 282 43 3 13 12 39 20 58 8 19 37 100 65 180 28 80 57 161 65 180 8 19
37 99 64 178 114 320 153 429 171 477 10 28 40 109 65 180 26 72 55 153 65
180 21 57 126 347 194 538 59 165 86 286 86 389 0 160 -52 290 -151 383 -77
70 -142 95 -252 95 -117 -1 -188 -30 -200 -83 -2 -12 -12 -49 -21 -82 -32
-113 -108 -398 -170 -640 -25 -93 -56 -214 -70 -267 -14 -53 -39 -148 -55
-210 -35 -130 -74 -273 -95 -338 -73 -235 -92 -290 -98 -290 -5 0 -8 12 -8 28
0 15 -7 63 -14 107 -8 44 -24 136 -36 205 -11 69 -28 166 -36 215 -8 50 -46
278 -84 508 -75 452 -91 508 -171 628 -79 118 -219 218 -350 253 -82 21 -188
27 -239 13z"/>
<path d="M11440 3571 c-220 -32 -410 -138 -605 -335 -264 -268 -464 -686 -544
-1138 -47 -267 -47 -499 1 -663 82 -280 327 -575 563 -679 93 -42 176 -51 313
-37 222 24 420 84 647 196 254 126 437 281 512 433 34 68 37 80 37 165 -1 68
-5 101 -18 126 -25 48 -90 115 -146 151 l-49 32 -124 -99 c-240 -194 -462
-323 -612 -359 -47 -11 -100 -15 -161 -12 -81 3 -98 7 -140 34 -56 34 -91 89
-110 171 l-12 53 31 -16 c47 -25 219 -14 315 19 114 40 278 131 398 219 137
101 385 349 476 478 85 120 165 277 179 355 41 221 -87 489 -286 596 -26 14
-54 43 -79 81 -109 167 -355 262 -586 229z m317 -603 c-28 -291 -352 -777
-602 -905 -44 -22 -93 -43 -108 -47 -24 -6 -28 -4 -23 11 3 10 10 40 16 66 37
169 156 451 253 601 60 92 174 217 236 260 56 39 150 75 195 76 l39 0 -6 -62z"/>
<path d="M20440 3564 c-140 -23 -211 -47 -305 -102 -311 -183 -581 -565 -661
-936 -13 -60 -15 -107 -11 -200 8 -169 41 -260 125 -342 44 -42 148 -106 212
-130 96 -34 477 -166 507 -175 52 -16 126 -71 150 -114 28 -49 29 -96 4 -151
-36 -78 -173 -119 -317 -95 -243 41 -449 166 -594 360 -23 30 -29 33 -58 26
-97 -21 -162 -152 -161 -325 1 -166 51 -281 174 -398 183 -175 476 -271 822
-272 380 0 695 178 838 475 54 112 75 205 75 333 0 150 -38 247 -136 346 -86
86 -134 109 -646 306 -155 59 -204 93 -214 147 -8 45 10 178 36 262 61 193
215 410 325 455 119 50 133 -10 42 -189 -43 -86 -67 -165 -67 -221 0 -106 182
-333 324 -406 53 -27 117 -29 145 -4 11 10 32 53 46 95 14 43 67 162 119 267
119 241 129 272 124 377 -3 71 -9 93 -42 162 -44 90 -121 174 -201 220 -27 16
-77 54 -110 85 -79 74 -142 105 -251 124 -96 16 -254 27 -294 20z"/>
<path d="M12972 3535 c-16 -13 -32 -37 -35 -52 -3 -16 -15 -70 -26 -121 -49
-225 -106 -568 -136 -822 -52 -437 -87 -1087 -66 -1239 22 -162 101 -295 224
-372 28 -18 78 -57 111 -86 77 -69 179 -112 284 -120 l77 -6 23 59 c139 351
260 622 416 934 158 314 391 725 371 652 -16 -56 -77 -301 -85 -342 -5 -25
-18 -88 -30 -140 -92 -424 -76 -753 46 -956 19 -33 49 -73 66 -91 96 -100 343
-159 493 -118 52 14 65 21 61 34 -58 196 -6 1182 98 1892 19 123 22 168 14
215 -17 112 -86 194 -213 256 -44 21 -105 57 -135 79 -228 167 -477 19 -744
-441 -64 -111 -246 -468 -246 -483 0 -3 -19 -47 -43 -99 -24 -51 -74 -164
-112 -250 -38 -87 -70 -156 -71 -155 -2 2 5 45 16 97 10 52 42 214 70 360 59
306 68 353 115 590 41 206 45 306 15 401 -54 170 -194 294 -375 335 -96 21
-149 18 -183 -11z"/>
<path d="M17179 3544 c-62 -26 -74 -66 -99 -344 -6 -63 -17 -182 -25 -265 -51
-526 -74 -1042 -55 -1234 33 -346 159 -621 365 -794 130 -109 253 -163 442
-193 327 -51 630 44 855 270 322 322 513 981 521 1799 2 172 -4 210 -50 304
-82 170 -341 353 -499 353 -53 0 -121 -26 -135 -51 -5 -10 -16 -112 -24 -226
-62 -893 -139 -1344 -275 -1618 -63 -127 -131 -178 -234 -178 -98 1 -164 63
-201 190 -54 184 -41 512 55 1440 16 147 13 202 -14 258 -24 53 -99 129 -179
184 -145 99 -348 147 -448 105z"/>
<path d="M4827 3083 c-1 0 -24 -3 -52 -6 -27 -3 -77 -10 -110 -16 -33 -5 -87
-13 -120 -16 -165 -16 -239 -25 -330 -40 -31 -5 -88 -12 -165 -20 -25 -3 -65
-7 -90 -10 -25 -3 -69 -7 -98 -10 -29 -2 -57 -7 -63 -10 -5 -4 -31 -8 -57 -10
-26 -2 -63 -6 -82 -9 -19 -3 -64 -7 -100 -11 -36 -3 -76 -8 -90 -10 -14 -2
-52 -7 -84 -10 -33 -3 -62 -8 -66 -10 -4 -2 -33 -7 -66 -10 -32 -3 -77 -8 -99
-11 -22 -3 -58 -7 -80 -9 -22 -2 -67 -7 -100 -11 -33 -4 -70 -7 -82 -7 -13 1
-23 -2 -23 -6 0 -4 -8 -7 -17 -7 -10 -1 -45 -4 -78 -8 -74 -9 -135 -15 -198
-20 -27 -2 -51 -6 -53 -9 -3 -3 4 -69 15 -148 11 -79 22 -175 25 -214 3 -38
17 -151 31 -250 14 -99 25 -194 25 -211 0 -31 0 -31 48 -28 26 2 63 5 82 8 19
2 60 7 90 10 30 4 73 9 94 11 22 3 59 7 83 10 23 2 46 6 50 8 5 3 42 8 83 12
41 4 89 9 105 11 17 3 50 7 75 9 101 9 156 16 175 22 11 3 34 7 50 9 17 1 55
6 85 9 54 7 103 12 190 20 25 2 59 6 75 9 17 3 57 10 90 15 33 6 80 12 105 15
25 3 46 5 47 5 3 2 109 137 137 176 16 22 32 42 35 45 3 3 19 23 36 45 16 22
32 42 35 45 4 3 20 23 36 45 16 22 37 49 46 60 9 11 39 49 67 85 28 36 63 80
78 98 15 18 34 43 43 55 14 22 120 157 188 239 39 48 41 66 6 64 -14 0 -26 -2
-27 -3z"/>
</g>
</svg>
